<svg width="38" height="38" viewBox="0 0 38 38" fill="none" xmlns="http://www.w3.org/2000/svg">
<path fill-rule="evenodd" clip-rule="evenodd" d="M19.0002 1.58334C9.38141 1.58334 1.5835 9.38126 1.5835 19C1.5835 28.6188 9.38141 36.4167 19.0002 36.4167C28.6189 36.4167 36.4168 28.6188 36.4168 19C36.4168 9.38126 28.6189 1.58334 19.0002 1.58334ZM17.2458 14.1471C17.61 13.4298 17.8792 13.0894 18.1024 12.9121C18.2702 12.7791 18.4982 12.6667 19.0002 12.6667C19.9897 12.6667 20.5835 13.4108 20.5835 14.2152C20.5835 14.6553 20.498 14.8738 20.2637 15.1525C19.9359 15.542 19.3295 16.0154 18.1293 16.8087L17.4168 17.2773V20.5833C17.4168 21.0033 17.5836 21.406 17.8806 21.7029C18.1775 21.9999 18.5802 22.1667 19.0002 22.1667C19.4201 22.1667 19.8228 21.9999 20.1197 21.7029C20.4167 21.406 20.5835 21.0033 20.5835 20.5833V18.9731C21.4417 18.3809 22.1621 17.8141 22.6846 17.1934C23.4398 16.2973 23.7502 15.3409 23.7502 14.2152C23.7502 11.8877 21.9562 9.50001 19.0002 9.50001C17.9172 9.50001 16.9592 9.77868 16.1375 10.4294C15.3712 11.0358 14.8487 11.8703 14.4212 12.7173C14.3218 12.9033 14.2606 13.1073 14.2412 13.3173C14.2217 13.5272 14.2444 13.7389 14.3079 13.94C14.3714 14.1411 14.4744 14.3274 14.6109 14.4882C14.7474 14.6489 14.9146 14.7807 15.1027 14.876C15.2909 14.9712 15.4961 15.0279 15.7064 15.0427C15.9168 15.0575 16.128 15.0302 16.3276 14.9623C16.5272 14.8944 16.7113 14.7873 16.8689 14.6473C17.0266 14.5073 17.1548 14.3373 17.2458 14.1471ZM20.5835 26.125C20.5835 25.7051 20.4167 25.3024 20.1197 25.0054C19.8228 24.7085 19.4201 24.5417 19.0002 24.5417C18.5802 24.5417 18.1775 24.7085 17.8806 25.0054C17.5836 25.3024 17.4168 25.7051 17.4168 26.125V26.9167C17.4168 27.3366 17.5836 27.7393 17.8806 28.0363C18.1775 28.3332 18.5802 28.5 19.0002 28.5C19.4201 28.5 19.8228 28.3332 20.1197 28.0363C20.4167 27.7393 20.5835 27.3366 20.5835 26.9167V26.125Z" fill="#CACACA"/>
</svg>
