<svg width="36" height="37" viewBox="0 0 36 37" fill="none" xmlns="http://www.w3.org/2000/svg">
<path d="M31.6049 30.1466C33.4335 27.8751 34.7052 25.1823 35.3126 22.2961C35.92 19.4098 35.8452 16.4149 35.0945 13.5648C34.3437 10.7148 32.9392 8.09327 30.9997 5.92215C29.0602 3.75103 26.6428 2.09416 23.9519 1.09169C21.261 0.0892231 18.3759 -0.229349 15.5405 0.162925C12.7052 0.5552 10.0031 1.64678 7.66275 3.34532C5.32242 5.04387 3.41274 7.29941 2.09526 9.92113C0.777777 12.5429 0.0912512 15.4537 0.0937568 18.4073C0.0947183 22.701 1.56019 26.8572 4.23303 30.1466L4.20757 30.1689C4.29669 30.2793 4.39855 30.374 4.49022 30.4831C4.60481 30.6185 4.72832 30.746 4.84673 30.8775C5.20323 31.2771 5.56992 31.661 5.95444 32.0212C6.07158 32.1316 6.19253 32.2341 6.31094 32.3393C6.71838 32.7021 7.13727 33.0466 7.57144 33.3673C7.62746 33.4068 7.67839 33.458 7.73442 33.4988V33.483C10.7165 35.6497 14.2739 36.8125 17.9203 36.8125C21.5667 36.8125 25.1241 35.6497 28.1061 33.483V33.4988C28.1621 33.458 28.2118 33.4068 28.2691 33.3673C28.702 33.0452 29.1221 32.7021 29.5296 32.3393C29.648 32.2341 29.7689 32.1303 29.8861 32.0212C30.2706 31.6597 30.6373 31.2771 30.9938 30.8775C31.1122 30.746 31.2344 30.6185 31.3503 30.4831C31.4407 30.374 31.5438 30.2793 31.633 30.1676L31.6049 30.1466ZM17.919 7.89052C19.0522 7.89052 20.1599 8.23747 21.1021 8.88749C22.0444 9.53751 22.7787 10.4614 23.2124 11.5424C23.646 12.6233 23.7595 13.8127 23.5384 14.9603C23.3174 16.1078 22.7717 17.1619 21.9704 17.9892C21.1691 18.8165 20.1482 19.3799 19.0368 19.6082C17.9253 19.8364 16.7733 19.7193 15.7264 19.2715C14.6795 18.8238 13.7846 18.0656 13.1551 17.0928C12.5255 16.1199 12.1895 14.9762 12.1895 13.8062C12.1895 12.2373 12.7931 10.7326 13.8676 9.62318C14.9421 8.51378 16.3994 7.89052 17.919 7.89052ZM7.74205 30.1466C7.76414 28.4205 8.44354 26.7727 9.63326 25.5599C10.823 24.347 12.4274 23.6665 14.0993 23.6656H21.7387C23.4106 23.6665 25.015 24.347 26.2047 25.5599C27.3944 26.7727 28.0738 28.4205 28.0959 30.1466C25.3035 32.7446 21.6779 34.1825 17.919 34.1825C14.1601 34.1825 10.5345 32.7446 7.74205 30.1466Z" fill="#F4924A"/>
</svg>
